<!DOCTYPE svg PUBLIC "-//W3C//DTD SVG 1.1//EN" "http://www.w3.org/Graphics/SVG/1.1/DTD/svg11.dtd">
<!-- Uploaded to: SVG Repo, www.svgrepo.com, Transformed by: SVG Repo Mixer Tools -->
<svg height="800px" width="800px" version="1.1" id="Capa_1" xmlns="http://www.w3.org/2000/svg" xmlns:xlink="http://www.w3.org/1999/xlink" viewBox="0 0 450.768 450.768" xml:space="preserve" fill="#000000">
<g id="SVGRepo_bgCarrier" stroke-width="0"/>
<g id="SVGRepo_tracerCarrier" stroke-linecap="round" stroke-linejoin="round"/>
<g id="SVGRepo_iconCarrier"> <g> <path d="M445.984,16.673c0.31,1.43,0.67,2.94,0.54,4.37c-2.09,23.41,0,47.1-5.23,70.34c-3.99,17.74-11.55,33.29-24.36,46.24 c-0.76,0.77-1.4,1.67-2.02,2.57c-0.19,0.27-0.11,0.72-0.19,1.41c5.48,0,10.95,0,18.63,0c-7.3,14.15-13.76,26.48-26.08,33.83 c-11.95,7.12-21.77,16.05-30.4,26.88c-6.6,8.28-14.57,15.47-22.19,23.42c8.91,28.62,17.97,57.71,27.3,87.66 c4.56-1.28,9.03-2.53,13.51-3.78c20.37-5.66,34.2,4.8,34.48,25.84c0.04,3.1,0.82,6.39,2.05,9.24c3.78,8.72,1.53,17.01-6.45,21.91 c-1.88,1.16-3.89,2.11-5.89,3.05c-45.08,21.04-90.71,40.78-137.5,57.73c-20.07,7.26-40.13,14.6-60.46,21.03 c-6.77,2.15-14.54,2.84-21.6,2.02c-15.78-1.83-25.39-12.05-31.48-26.2c-8.06-18.76-13.4-38.26-15.76-58.47 c-2.22-18.96-7.56-36.52-17.83-52.84c-7.23-11.48-13.04-23.9-18.86-36.2c-1.09-2.3-0.1-6.48,1.38-8.9c2.27-3.7,5.87-6.57,8.79-9.89 c2.11-2.39,4.04-4.94,6.85-8.41c-7.71,0.47-13.86,0.59-19.95,1.3c-6.11,0.72-10.31-1.84-12.24-7.19 c-2.35-6.53-3.57-13.46-5.7-20.09c-1.78-5.55-3.21-11.57-6.44-16.24c-7.71-11.14-12.1-23.48-15.65-36.32 c-2.62-9.52-5.56-18.96-8.63-29.33c-6.49,1.88-12.36,3.63-18.26,5.27c-12.28,3.41-21.43,0.79-27.81-9.64 c-8.13-13.29-13.89-27.65-14.29-43.59c-0.25-10.42,1.04-12.58,10.98-16.53c8.21-3.26,16.47-6.63,25-8.77 c62.56-15.69,123.67-36.05,184.72-56.6c8.37-2.82,16.57-6.16,24.95-8.96c11.56-3.88,23.21-3.78,34.7,0.33 c6.87,2.45,12.28,6.65,14.64,13.96c5.21,16.1,10.33,32.22,15.72,48.26c2.27,6.74,1.7,11.38-5.12,15.76 c-5.56,3.58-9.47,9.71-14.11,14.71c0.41,0.7,0.83,1.4,1.25,2.1c4.94-0.55,9.93-0.82,14.81-1.7c7.81-1.39,9.69-0.95,13.12,6.32 c2.18,4.61,3.29,9.72,4.85,14.62c0.94,2.98,1.85,5.97,3.3,10.69c3.44-4.67,5.89-7.78,8.09-11.06c7.2-10.69,14.19-21.53,21.54-32.12 c1.71-2.46,4.51-4.16,6.81-6.21c2.06,2.33,4.16,4.64,6.17,7.02c0.63,0.76,1.01,1.73,2.12,3.68c0.5-2.43,0.98-3.73,0.99-5.03 c0.22-15.98,6.09-29.46,18.09-40.02c12.44-10.95,24.95-21.83,37.78-32.31C440.644,6.943,444.324,8.813,445.984,16.673z M437.794,52.493c0.63-10.56,0.14-21.19,0.14-34.27c-16.3,13.25-31.51,24.37-42.88,39.43c-4,5.3-6.05,12.48-7.62,19.13 c-2.77,11.79-4.31,23.87-6.73,35.76c-0.87,4.29-2.54,8.47-4.34,12.47c-0.61,1.34-3.2,3.06-4.1,2.7c-1.72-0.7-3.92-2.69-4.05-4.3 c-0.39-4.73,0.13-9.54,0.33-14.32c0.2-4.91,0.44-9.83,0.67-15.01c-2,0.44-3.03,0.35-3.28,0.76 c-14.25,22.41-30.58,43.23-47.28,63.85c-13.02,16.07-18.15,35.19-15.07,56.02c0.34,2.24,1.52,4.35,2.4,6.78 c54.35-42.8,89.55-98.67,119.19-158.92c-2.77,15.96-9.39,30.48-16.84,44.58c-7.39,13.98-14.73,28.08-23.44,41.24 c-8.91,13.45-18.95,26.24-29.42,38.52c-10.4,12.2-21.96,23.41-33.64,35.71c8.42,3.33,15.24,1.66,20.74-2.7 c9.76-7.72,19.3-15.86,28.03-24.71c8.86-8.98,17.74-17.71,28.89-23.77c9.63-5.24,16.05-13.3,21.71-22.72 c-8.56-1.7-16.28,3.86-25.77-0.19c3.84-4.22,6.66-7.94,10.09-10.96c15.85-14,25.26-31.5,28.52-52.23 C435.754,74.463,437.134,63.483,437.794,52.493z M420.344,353.513c0.97-9.48,2.15-19.16-2.18-28.24 c-4.27-8.95-8.16-10.48-17.76-6.72c-57.94,22.72-117.1,41.69-177.01,58.4c-4.03,1.12-7.85,2.95-13.12,4.97 c20.45,16.44,22.1,36,13.38,57.55c10.01,0.54,14.14-3.82,15.79-12.4c1.23-6.33,2.84-12.95,8.14-17.86 c-1.64,7.75-3.27,15.49-5.04,23.81c7.66-0.94,11.86-3.74,12.88-10.8c0.52-3.57,2.25-6.98,3.63-10.39 c1.35-3.32,1.49-7.36,6.31-11.29c-2.26,9.38-4.02,16.66-5.93,24.57c8.29-1.17,13.7-3.57,15.44-12.11 c1.49-7.32,4.81-14.26,7.32-21.36c0.71,0.2,1.42,0.4,2.13,0.6c-1.91,8.32-3.82,16.64-5.77,25.15c8.09-0.04,11.21-4.02,13.14-10.37 c1.88-6.21,4.99-12.04,7.56-18.03c0.76,0.27,1.53,0.54,2.29,0.81c-1.95,6.5-3.9,13-6.12,20.39c6.26-0.04,10.46-1.39,12.8-7.7 c2.87-7.72,6.75-15.06,10.2-22.57c0.6,0.25,1.21,0.5,1.81,0.75c-2.59,7.33-5.19,14.67-8.02,22.68c9.36-1.02,14.76-4.37,16.61-13.01 c1.04-4.84,3.85-9.3,5.86-13.93c0.63,0.2,1.26,0.39,1.89,0.59c-1.45,6.04-2.9,12.07-4.38,18.19c9.67,0.11,10.22-7.3,13.18-12.48 c0.22-0.39,1-0.47,2.25-1.01c-0.4,2.76-0.73,5.03-1.22,8.38c3.46-1.36,6.94-1.65,8.51-3.53c4.28-5.12,7.74-10.92,12.68-18.11 c-0.34,5.28-0.56,8.65-0.83,12.77c16.61-7.67,32.62-14.95,48.5-22.51C417.374,357.693,420.154,355.433,420.344,353.513z M370.574,318.083c-8.57-29.69-16.87-58.46-25.36-87.87c-11.15,4.75-21.17,3.42-31.47-0.42c-2.63,2.82-5.63,5.16-7.5,8.2 c-6.11,9.94-12.15,19.95-17.53,30.3c-2.76,5.3-5.45,9.17-12.1,9.55c-2.41,0.13-4.83,2.8-6.96,4.66c-2.76,2.41-4.96,5.57-7.95,7.59 c-1.37,0.93-4.06-0.08-7.54-0.29c16.55-22.14,31.9-42.69,47.31-63.31c-4.74-11.24-7.77-22.13-5.77-34.45 c2.91-17.83,11.52-32.41,22.39-46.11c2.92-3.68,5.98-7.24,8.81-10.67c-8.4-9.13-6.52-21.08-12.11-31.07 c-9.47,0.7-19.09,1.41-30.64,2.26c3.91-6.44,6.84-11.4,9.91-16.26c6.94-10.99,10.79-22.42,5.92-35.4 c-3.36-8.94-6.88-17.84-9.67-26.96c-4.26-13.94-7.36-16.72-21.85-16.49c-4.72,0.08-9.63,0.6-14.09,2.04 c-14.36,4.64-28.46,10.08-42.82,14.71c-55.97,18.07-111.4,38.08-169.56,48.57c-0.46,0.08-0.75,1.09-0.91,1.34 c6.77,6.73,14.87,12.51,19.79,20.3c4.99,7.9,6.82,17.79,10.36,27.73c2.06-4.25,3.53-7.3,5.6-11.56 c1.35,10.31-8.76,18.87-0.53,28.95c2.78-7.78,5.21-14.56,7.63-21.33c1.01,14.28-11.08,27.1-1.02,42.46 c3.81-8.23,7.25-15.68,10.69-23.13c0.76,0.34,1.53,0.67,2.3,1.01c-2.85,7.86-5.41,15.84-8.63,23.54 c-3.13,7.45-1.8,13.79,3.34,21.17c2.74-6.52,5-11.9,7.25-17.27c0.69,0.27,1.39,0.54,2.08,0.81c-1.54,5.2-2.71,10.55-4.7,15.58 c-2.59,6.54-1.13,11.19,5.43,15.05c3.16-7.19,6.17-14.01,9.9-22.47c2.33,14.59-12.18,25.42-3.14,39.01 c2.87-6.43,5.54-12.44,8.22-18.45c0.47,14.46-12.51,27.06-3.84,42.73c7.3-0.36,14.25-0.73,21.21-1.03c4.1-0.17,9.17-0.41,10.4,4.03 c0.74,2.67-1.54,6.86-3.6,9.48c-4.97,6.33-10.6,12.13-16.33,18.54c3.7,6.32,7.2,12.31,11.34,19.4c2.99-6.66,5.2-11.58,7.41-16.5 c0.21,6.14-1.17,11.75-3.1,17.16c-1.87,5.24-0.48,8.93,4,12.11c2.64-6.54,5.11-12.62,7.57-18.69c0.13,5.9-0.92,11.29-2.78,16.4 c-2.91,7.99-0.61,14.02,5.67,19.42c1.57-3.69,2.92-6.87,4.27-10.06c-3.61,13.78,1.11,26.44,3.87,39.28 c0.93,4.31,1.27,8.73,1.86,13.11c2.71,20.15,7.62,39.74,15.38,58.57c3.86,9.36,10.24,15.42,20.45,18.43 c7.31,2.17,13.74-1,16.41-7.08c1.68-3.8,2.44-8.01,3.81-12.73c-3.33,0.17-5.11,0.2-6.87,0.36c-9.47,0.84-12.96-0.7-16.26-9.25 c-8.15-21.13-3.41-29.1,13.3-38.19c2.58-1.4,5.31-2.58,8.08-3.6c14.85-5.45,29.65-11.07,44.63-16.15 c27.53-9.33,55.19-18.24,82.74-27.51C353.544,324.853,361.614,321.483,370.574,318.083z M215.734,414.083c5-5.21,3.23-9.19,0.34-13 c-1.05,0.22-2.09,0.44-3.13,0.66C213.874,405.853,214.804,409.963,215.734,414.083z M211.004,394.443 c-1.33-1.71-2.02-3.01-3.09-3.86c-1.02-0.83-2.42-1.18-3.55-1.69c-6.6,8.82-6.23,15.76,2.62,27.06c0-4.98,0.93-8.42-0.19-10.93 C204.514,399.923,205.844,396.733,211.004,394.443z M62.764,133.803c-4.26-15.57-3.03-32.05-17.52-42.84 c-3.09,1.51-5.94,2.91-9.17,4.49c8.56,13.28,12.74,27.51,15.37,42.79C55.444,136.673,58.464,135.483,62.764,133.803z M42.484,132.533c0.35-3.13-0.51-6.4-0.84-9.56c-13,0.43-15.27-0.97-19.68-11.62c-0.42-1.02-0.94-2.01-1.24-3.07 c-2.25-7.82,0.55-14.18,7.86-18.09c2.69-1.44,5.3-3.01,9.19-5.22c-10.26-4.24-17.98-1.02-26.44,2.53 c-0.22,2.21-0.68,3.69-0.46,5.08c2.24,14.74,7.78,28.32,14.95,41.27c1.04,1.86,2.68,3.81,4.53,4.7c2.84,1.37,6.66,3.23,9.01,2.28 C41.264,140.073,42.164,135.523,42.484,132.533z M37.194,114.953c-0.52-9.79-0.52-9.79-7.45-14.24 C26.904,109.023,29.884,114.703,37.194,114.953z"/> <path style="fill:#E6E6E6;" d="M437.934,18.223c0,13.08,0.49,23.71-0.14,34.27c-0.66,10.99-2.04,21.97-3.75,32.85 c-3.26,20.73-12.67,38.23-28.52,52.23c-3.43,3.02-6.25,6.74-10.09,10.96c9.49,4.05,17.21-1.51,25.77,0.19 c-5.66,9.42-12.08,17.48-21.71,22.72c-11.15,6.06-20.03,14.79-28.89,23.77c-8.73,8.85-18.27,16.99-28.03,24.71 c-5.5,4.36-12.32,6.03-20.74,2.7c11.68-12.3,23.24-23.51,33.64-35.71c10.47-12.28,20.51-25.07,29.42-38.52 c8.71-13.16,16.05-27.26,23.44-41.24c7.45-14.1,14.07-28.62,16.84-44.58c-29.64,60.25-64.84,116.12-119.19,158.92 c-0.88-2.43-2.06-4.54-2.4-6.78c-3.08-20.83,2.05-39.95,15.07-56.02c16.7-20.62,33.03-41.44,47.28-63.85 c0.25-0.41,1.28-0.32,3.28-0.76c-0.23,5.18-0.47,10.1-0.67,15.01c-0.2,4.78-0.72,9.59-0.33,14.32c0.13,1.61,2.33,3.6,4.05,4.3 c0.9,0.36,3.49-1.36,4.1-2.7c1.8-4,3.47-8.18,4.34-12.47c2.42-11.89,3.96-23.97,6.73-35.76c1.57-6.65,3.62-13.83,7.62-19.13 C406.424,42.593,421.634,31.473,437.934,18.223z"/> <path style="fill:#C69C6D;" d="M418.164,325.273c4.33,9.08,3.15,18.76,2.18,28.24c-0.19,1.92-2.97,4.18-5.08,5.19 c-15.88,7.56-31.89,14.84-48.5,22.51c0.27-4.12,0.49-7.49,0.83-12.77c-4.94,7.19-8.4,12.99-12.68,18.11 c-1.57,1.88-5.05,2.17-8.51,3.53c0.49-3.35,0.82-5.62,1.22-8.38c-1.25,0.54-2.03,0.62-2.25,1.01c-2.96,5.18-3.51,12.59-13.18,12.48 c1.48-6.12,2.93-12.15,4.38-18.19c-0.63-0.2-1.26-0.39-1.89-0.59c-2.01,4.63-4.82,9.09-5.86,13.93 c-1.85,8.64-7.25,11.99-16.61,13.01c2.83-8.01,5.43-15.35,8.02-22.68c-0.6-0.25-1.21-0.5-1.81-0.75 c-3.45,7.51-7.33,14.85-10.2,22.57c-2.34,6.31-6.54,7.66-12.8,7.7c2.22-7.39,4.17-13.89,6.12-20.39c-0.76-0.27-1.53-0.54-2.29-0.81 c-2.57,5.99-5.68,11.82-7.56,18.03c-1.93,6.35-5.05,10.33-13.14,10.37c1.95-8.51,3.86-16.83,5.77-25.15 c-0.71-0.2-1.42-0.4-2.13-0.6c-2.51,7.1-5.83,14.04-7.32,21.36c-1.74,8.54-7.15,10.94-15.44,12.11c1.91-7.91,3.67-15.19,5.93-24.57 c-4.82,3.93-4.96,7.97-6.31,11.29c-1.38,3.41-3.11,6.82-3.63,10.39c-1.02,7.06-5.22,9.86-12.88,10.8 c1.77-8.32,3.4-16.06,5.04-23.81c-5.3,4.91-6.91,11.53-8.14,17.86c-1.65,8.58-5.78,12.94-15.79,12.4 c8.72-21.55,7.07-41.11-13.38-57.55c5.27-2.02,9.09-3.85,13.12-4.97c59.91-16.71,119.07-35.68,177.01-58.4 C410.004,314.793,413.894,316.323,418.164,325.273z"/> <path style="fill:#C69C6D;" d="M345.214,230.213c8.49,29.41,16.79,58.18,25.36,87.87c-8.96,3.4-17.03,6.77-25.3,9.55 c-27.55,9.27-55.21,18.18-82.74,27.51c-14.98,5.08-29.78,10.7-44.63,16.15c-2.77,1.02-5.5,2.2-8.08,3.6 c-16.71,9.09-21.45,17.06-13.3,38.19c3.3,8.55,6.79,10.09,16.26,9.25c1.76-0.16,3.54-0.19,6.87-0.36 c-1.37,4.72-2.13,8.93-3.81,12.73c-2.67,6.08-9.1,9.25-16.41,7.08c-10.21-3.01-16.59-9.07-20.45-18.43 c-7.76-18.83-12.67-38.42-15.38-58.57c-0.59-4.38-0.93-8.8-1.86-13.11c-2.76-12.84-7.48-25.5-3.87-39.28 c-1.35,3.19-2.7,6.37-4.27,10.06c-6.28-5.4-8.58-11.43-5.67-19.42c1.86-5.11,2.91-10.5,2.78-16.4c-2.46,6.07-4.93,12.15-7.57,18.69 c-4.48-3.18-5.87-6.87-4-12.11c1.93-5.41,3.31-11.02,3.1-17.16c-2.21,4.92-4.42,9.84-7.41,16.5c-4.14-7.09-7.64-13.08-11.34-19.4 c5.73-6.41,11.36-12.21,16.33-18.54c2.06-2.62,4.34-6.81,3.6-9.48c-1.23-4.44-6.3-4.2-10.4-4.03c-6.96,0.3-13.91,0.67-21.21,1.03 c-8.67-15.67,4.31-28.27,3.84-42.73c-2.68,6.01-5.35,12.02-8.22,18.45c-9.04-13.59,5.47-24.42,3.14-39.01 c-3.73,8.46-6.74,15.28-9.9,22.47c-6.56-3.86-8.02-8.51-5.43-15.05c1.99-5.03,3.16-10.38,4.7-15.58c-0.69-0.27-1.39-0.54-2.08-0.81 c-2.25,5.37-4.51,10.75-7.25,17.27c-5.14-7.38-6.47-13.72-3.34-21.17c3.22-7.7,5.78-15.68,8.63-23.54 c-0.77-0.34-1.54-0.67-2.3-1.01c-3.44,7.45-6.88,14.9-10.69,23.13c-10.06-15.36,2.03-28.18,1.02-42.46 c-2.42,6.77-4.85,13.55-7.63,21.33c-8.23-10.08,1.88-18.64,0.53-28.95c-2.07,4.26-3.54,7.31-5.6,11.56 c-3.54-9.94-5.37-19.83-10.36-27.73c-4.92-7.79-13.02-13.57-19.79-20.3c0.16-0.25,0.45-1.26,0.91-1.34 c58.16-10.49,113.59-30.5,169.56-48.57c14.36-4.63,28.46-10.07,42.82-14.71c4.46-1.44,9.37-1.96,14.09-2.04 c14.49-0.23,17.59,2.55,21.85,16.49c2.79,9.12,6.31,18.02,9.67,26.96c4.87,12.98,1.02,24.41-5.92,35.4 c-3.07,4.86-6,9.82-9.91,16.26c11.55-0.85,21.17-1.56,30.64-2.26c5.59,9.99,3.71,21.94,12.11,31.07 c-2.83,3.43-5.89,6.99-8.81,10.67c-10.87,13.7-19.48,28.28-22.39,46.11c-2,12.32,1.03,23.21,5.77,34.45 c-15.41,20.62-30.76,41.17-47.31,63.31c3.48,0.21,6.17,1.22,7.54,0.29c2.99-2.02,5.19-5.18,7.95-7.59 c2.13-1.86,4.55-4.53,6.96-4.66c6.65-0.38,9.34-4.25,12.1-9.55c5.38-10.35,11.42-20.36,17.53-30.3c1.87-3.04,4.87-5.38,7.5-8.2 C324.044,233.633,334.064,234.963,345.214,230.213z M264.404,144.443c0.2-0.12,0.18-0.69,0.15-1.04c-0.02-0.29-0.19-0.57-0.58-1.63 c-3.38,0.45-7.18,0.29-10.5,1.47c-41.42,14.8-82.77,29.8-124.13,44.74c44.88-7.45,86.51-24.05,128.4-39.82 C260.104,147.283,262.214,145.733,264.404,144.443z M261.914,198.383c-0.38-0.79-0.76-1.58-1.14-2.37 c-35.17,7-68.64,18.86-100.52,35.33c32.28-9.53,64.37-19.63,96.41-29.84C258.554,200.903,260.164,199.443,261.914,198.383z M261.514,123.503c-0.3-0.72-0.59-1.44-0.89-2.16c-43.53,5.21-83.52,24.35-126.1,33.35c-2.62,0.56-5.1,1.77-7.64,2.67 c0.2,0.84,0.41,1.67,0.61,2.5c9.93-1.8,20.05-2.89,29.76-5.52c32.93-8.92,65.73-18.36,98.55-27.71 C257.834,126.053,259.614,124.573,261.514,123.503z M255.454,230.753c-14.52-3.14-77.82,13.96-88.37,23.21 C197.124,248.683,225.784,238.053,255.454,230.753z M251.564,100.193c-0.24-0.76-0.48-1.52-0.72-2.28 c-11.74-1.39-122.42,32.54-135.39,42.15c24.22-1.98,44.18-13.38,65.92-18.38C205.164,116.223,228.204,107.503,251.564,100.193z M241.024,342.403c4.89-12,8.23-24.41,7.2-37.5c-0.54-6.88-4.87-9.27-11.7-7.22c-7.99,2.4-13.77,6.87-13.7,17.22 c-3.75-0.79-5.52-1.52-7.26-1.47c-6.54,0.2-13.34-0.39-19.54,1.25c-8.22,2.18-9.73,9.91-4.07,16.32c1.2,1.36,2.56,2.9,4.17,3.54 c11.21,4.45,22.4,9.01,33.84,12.82C234.314,348.803,239.044,347.263,241.024,342.403z M147.044,209.473 c10.61-0.06,115.28-37.77,122.28-44.27C225.514,175.183,186.554,193.093,147.044,209.473z M236.794,259.763 c-25.49,1.8-47.29,12.52-69.68,21.35C178.204,282.443,230.234,266.283,236.794,259.763z"/> <path style="fill:#754C24;" d="M264.554,143.403c0.03,0.35,0.05,0.92-0.15,1.04c-2.19,1.29-4.3,2.84-6.66,3.72 c-41.89,15.77-83.52,32.37-128.4,39.82c41.36-14.94,82.71-29.94,124.13-44.74c3.32-1.18,7.12-1.02,10.5-1.47 C264.364,142.833,264.534,143.113,264.554,143.403z"/> <path style="fill:#754C24;" d="M260.774,196.013c0.38,0.79,0.76,1.58,1.14,2.37c-1.75,1.06-3.36,2.52-5.25,3.12 c-32.04,10.21-64.13,20.31-96.41,29.84C192.134,214.873,225.604,203.013,260.774,196.013z"/> <path style="fill:#754C24;" d="M260.624,121.343c0.3,0.72,0.59,1.44,0.89,2.16c-1.9,1.07-3.68,2.55-5.71,3.13 c-32.82,9.35-65.62,18.79-98.55,27.71c-9.71,2.63-19.83,3.72-29.76,5.52c-0.2-0.83-0.41-1.66-0.61-2.5 c2.54-0.9,5.02-2.11,7.64-2.67C177.104,145.693,217.094,126.553,260.624,121.343z"/> <path style="fill:#754C24;" d="M167.084,253.963c10.55-9.25,73.85-26.35,88.37-23.21 C225.784,238.053,197.124,248.683,167.084,253.963z"/> <path style="fill:#754C24;" d="M250.844,97.913c0.24,0.76,0.48,1.52,0.72,2.28c-23.36,7.31-46.4,16.03-70.19,21.49 c-21.74,5-41.7,16.4-65.92,18.38C128.424,130.453,239.104,96.523,250.844,97.913z"/> <path style="fill:#C69C6D;" d="M248.224,304.903c1.03,13.09-2.31,25.5-7.2,37.5c-1.98,4.86-6.71,6.4-11.06,4.96 c-11.44-3.81-22.63-8.37-33.84-12.82c-1.61-0.64-2.97-2.18-4.17-3.54c-5.66-6.41-4.15-14.14,4.07-16.32 c6.2-1.64,13-1.05,19.54-1.25c1.74-0.05,3.51,0.68,7.26,1.47c-0.07-10.35,5.71-14.82,13.7-17.22 C243.354,295.633,247.684,298.023,248.224,304.903z"/> <path style="fill:#C69C6D;" d="M216.074,401.083c2.89,3.81,4.66,7.79-0.34,13c-0.93-4.12-1.86-8.23-2.79-12.34 C213.984,401.523,215.024,401.303,216.074,401.083z"/> <path style="fill:#754C24;" d="M269.324,165.203c-7,6.5-111.67,44.21-122.28,44.27 C186.554,193.093,225.514,175.183,269.324,165.203z"/> <path style="fill:#C69C6D;" d="M207.914,390.583c1.07,0.85,1.76,2.15,3.09,3.86c-5.16,2.29-6.49,5.48-4.21,10.58 c1.12,2.51,0.19,5.95,0.19,10.93c-8.85-11.3-9.22-18.24-2.62-27.06C205.494,389.403,206.894,389.753,207.914,390.583z"/> <path style="fill:#754C24;" d="M167.114,281.113c22.39-8.83,44.19-19.55,69.68-21.35 C230.234,266.283,178.204,282.443,167.114,281.113z"/> <path style="fill:#C69C6D;" d="M45.244,90.963c14.49,10.79,13.26,27.27,17.52,42.84c-4.3,1.68-7.32,2.87-11.32,4.44 c-2.63-15.28-6.81-29.51-15.37-42.79C39.304,93.873,42.154,92.473,45.244,90.963z"/> <path style="fill:#C69C6D;" d="M41.644,122.973c0.33,3.16,1.19,6.43,0.84,9.56c-0.32,2.99-1.22,7.54-3.12,8.3 c-2.35,0.95-6.17-0.91-9.01-2.28c-1.85-0.89-3.49-2.84-4.53-4.7c-7.17-12.95-12.71-26.53-14.95-41.27 c-0.22-1.39,0.24-2.87,0.46-5.08c8.46-3.55,16.18-6.77,26.44-2.53c-3.89,2.21-6.5,3.78-9.19,5.22 c-7.31,3.91-10.11,10.27-7.86,18.09c0.3,1.06,0.82,2.05,1.24,3.07C26.374,122.003,28.644,123.403,41.644,122.973z"/> <path style="fill:#C69C6D;" d="M29.744,100.713c6.93,4.45,6.93,4.45,7.45,14.24C29.884,114.703,26.904,109.023,29.744,100.713z"/> </g> </g>
</svg>